<svg width="139" height="38" viewBox="0 0 139 38" fill="none" xmlns="http://www.w3.org/2000/svg">
<g clip-path="url(#clip0_2065_2)">
<rect width="139" height="38" rx="10" fill="#9CFF01"/>
<path d="M122.378 22.3178C122.191 22.3178 122.066 22.2569 121.941 22.135C121.691 21.8913 121.691 21.5257 121.941 21.282L128.191 15.1891C128.441 14.9454 128.816 14.9454 129.066 15.1891C129.316 15.4328 129.316 15.7984 129.066 16.0421L122.816 22.135C122.691 22.2569 122.566 22.3178 122.378 22.3178Z" fill="white"/>
<path d="M128.628 21.7086C128.253 21.7086 128.003 21.4648 128.003 21.0993V16.2249H123.003C122.628 16.2249 122.378 15.9812 122.378 15.6156C122.378 15.2501 122.628 15.0063 123.003 15.0063H128.628C129.003 15.0063 129.253 15.2501 129.253 15.6156V21.0993C129.253 21.4648 129.003 21.7086 128.628 21.7086Z" fill="white"/>
<rect x="-12" y="-4" width="125.06" height="46" rx="8" fill="#CDC9C9"/>
<path d="M31.6083 24V13.92H38.0483V15.299H33.0713V18.127H37.2083V19.506H33.0713V22.621H38.0483V24H31.6083ZM38.8894 24L41.7174 20.178L38.9524 16.44H40.6884L42.5714 19.037L44.4334 16.44H46.1694L43.4044 20.178L46.2394 24H44.4964L42.5714 21.319L40.6324 24H38.8894ZM50.9073 24.21C50.184 24.21 49.5773 24.035 49.0873 23.685C48.5973 23.3303 48.2263 22.852 47.9743 22.25C47.7223 21.648 47.5963 20.969 47.5963 20.213C47.5963 19.457 47.72 18.778 47.9673 18.176C48.2193 17.574 48.588 17.1003 49.0733 16.755C49.5633 16.405 50.1653 16.23 50.8793 16.23C51.5886 16.23 52.2 16.405 52.7133 16.755C53.2313 17.1003 53.6303 17.574 53.9103 18.176C54.1903 18.7733 54.3303 19.4523 54.3303 20.213C54.3303 20.969 54.1903 21.6503 53.9103 22.257C53.635 22.859 53.2406 23.335 52.7273 23.685C52.2186 24.035 51.612 24.21 50.9073 24.21ZM47.3513 27.36V16.44H48.6533V21.879H48.8213V27.36H47.3513ZM50.7043 22.887C51.171 22.887 51.556 22.768 51.8593 22.53C52.1673 22.292 52.396 21.9723 52.5453 21.571C52.6993 21.165 52.7763 20.7123 52.7763 20.213C52.7763 19.7183 52.6993 19.2703 52.5453 18.869C52.396 18.4677 52.165 18.148 51.8523 17.91C51.5396 17.672 51.1406 17.553 50.6553 17.553C50.198 17.553 49.82 17.665 49.5213 17.889C49.2273 18.113 49.008 18.4257 48.8633 18.827C48.7233 19.2283 48.6533 19.6903 48.6533 20.213C48.6533 20.7357 48.7233 21.1977 48.8633 21.599C49.0033 22.0003 49.225 22.3153 49.5283 22.544C49.8316 22.7727 50.2236 22.887 50.7043 22.887ZM56.0159 24V13.71H57.4789V24H56.0159ZM62.8639 24.21C62.1079 24.21 61.4523 24.0397 60.8969 23.699C60.3416 23.3583 59.9123 22.8893 59.6089 22.292C59.3103 21.69 59.1609 20.997 59.1609 20.213C59.1609 19.4243 59.3149 18.7313 59.6229 18.134C59.9309 17.532 60.3626 17.0653 60.9179 16.734C61.4733 16.398 62.1219 16.23 62.8639 16.23C63.6199 16.23 64.2756 16.4003 64.8309 16.741C65.3863 17.0817 65.8156 17.5507 66.1189 18.148C66.4223 18.7453 66.5739 19.4337 66.5739 20.213C66.5739 21.0017 66.4199 21.697 66.1119 22.299C65.8086 22.8963 65.3793 23.3653 64.8239 23.706C64.2686 24.042 63.6153 24.21 62.8639 24.21ZM62.8639 22.831C63.5873 22.831 64.1263 22.5883 64.4809 22.103C64.8403 21.613 65.0199 20.983 65.0199 20.213C65.0199 19.4243 64.8379 18.7943 64.4739 18.323C64.1146 17.847 63.5779 17.609 62.8639 17.609C62.3739 17.609 61.9703 17.721 61.6529 17.945C61.3356 18.1643 61.0999 18.47 60.9459 18.862C60.7919 19.2493 60.7149 19.6997 60.7149 20.213C60.7149 21.0063 60.8969 21.641 61.2609 22.117C61.6249 22.593 62.1593 22.831 62.8639 22.831ZM68.1122 24V16.44H69.4142V18.274L69.2322 18.036C69.3255 17.7933 69.4469 17.5717 69.5962 17.371C69.7455 17.1657 69.9182 16.9977 70.1142 16.867C70.3055 16.727 70.5179 16.6197 70.7512 16.545C70.9892 16.4657 71.2319 16.419 71.4792 16.405C71.7265 16.3863 71.9645 16.398 72.1932 16.44V17.812C71.9459 17.7467 71.6705 17.728 71.3672 17.756C71.0685 17.784 70.7932 17.8797 70.5412 18.043C70.3032 18.197 70.1142 18.3837 69.9742 18.603C69.8389 18.8223 69.7409 19.0673 69.6802 19.338C69.6195 19.604 69.5892 19.8863 69.5892 20.185V24H68.1122ZM76.7425 24.21C75.9912 24.21 75.3309 24.0467 74.7615 23.72C74.1969 23.3887 73.7559 22.929 73.4385 22.341C73.1259 21.7483 72.9695 21.0623 72.9695 20.283C72.9695 19.457 73.1235 18.7407 73.4315 18.134C73.7442 17.5273 74.1782 17.0583 74.7335 16.727C75.2889 16.3957 75.9352 16.23 76.6725 16.23C77.4425 16.23 78.0982 16.4097 78.6395 16.769C79.1809 17.1237 79.5845 17.63 79.8505 18.288C80.1212 18.946 80.2285 19.7277 80.1725 20.633H78.7095V20.101C78.7002 19.2237 78.5322 18.575 78.2055 18.155C77.8835 17.735 77.3912 17.525 76.7285 17.525C75.9959 17.525 75.4452 17.756 75.0765 18.218C74.7079 18.68 74.5235 19.3473 74.5235 20.22C74.5235 21.0507 74.7079 21.6947 75.0765 22.152C75.4452 22.6047 75.9772 22.831 76.6725 22.831C77.1299 22.831 77.5242 22.7283 77.8555 22.523C78.1915 22.313 78.4529 22.0143 78.6395 21.627L80.0745 22.082C79.7805 22.7587 79.3349 23.2837 78.7375 23.657C78.1402 24.0257 77.4752 24.21 76.7425 24.21ZM74.0475 20.633V19.492H79.4445V20.633H74.0475Z" fill="#222222"/>
</g>
<defs>
<clipPath id="clip0_2065_2">
<rect width="139" height="38" rx="10" fill="white"/>
</clipPath>
</defs>
</svg>
